<?xml version="1.0" encoding="UTF-8"?>
<svg id="Layer_2" data-name="Layer 2" xmlns="http://www.w3.org/2000/svg" viewBox="0 0 450.71 142.08">
  <defs>
    <style>
      .cls-1 {
        fill: #b55232;
      }
    </style>
  </defs>
  <g id="Layer_1-2" data-name="Layer 1">
    <g>
      <path class="cls-1" d="M141.98,100.27c0,5.08-.65,9.66-1.93,13.72-1.3,4.07-3,7.65-5.11,10.75-2.11,3.1-4.59,5.75-7.43,7.93-2.84,2.18-5.78,3.96-8.82,5.35-3.04,1.39-6.13,2.41-9.27,3.07-3.13,.66-6.09,.99-8.86,.99H1.19v-25.76H100.56c4.95,0,8.8-1.46,11.55-4.36,2.74-2.9,4.11-6.81,4.11-11.69,0-2.38-.37-4.56-1.09-6.54-.72-1.98-1.77-3.7-3.12-5.15-1.35-1.46-3-2.58-4.95-3.37-1.94-.79-4.11-1.19-6.49-1.19H41.32c-4.16,0-8.65-.75-13.47-2.23-4.82-1.49-9.3-3.89-13.42-7.19-4.13-3.3-7.57-7.63-10.3-12.98C1.37,56.28,0,49.74,0,42.01s1.37-14.25,4.12-19.57c2.74-5.31,6.17-9.64,10.3-12.97,4.12-3.34,8.6-5.75,13.42-7.24,4.82-1.48,9.31-2.23,13.47-2.23h87.68V25.76H41.32c-4.89,0-8.7,1.49-11.44,4.46-2.74,2.97-4.12,6.91-4.12,11.79s1.37,8.87,4.12,11.74c2.74,2.88,6.55,4.31,11.44,4.31h59.45c2.77,.07,5.72,.44,8.82,1.14,3.1,.69,6.19,1.76,9.27,3.22,3.06,1.46,5.99,3.28,8.76,5.5,2.77,2.21,5.24,4.87,7.38,7.97,2.15,3.1,3.85,6.67,5.11,10.7s1.88,8.59,1.88,13.67Z"/>
      <path class="cls-1" d="M305.36,47.76c0,5.88-.72,11.13-2.18,15.75s-3.41,8.7-5.9,12.23c-2.47,3.54-5.33,6.56-8.57,9.07s-6.62,4.57-10.15,6.19c-3.54,1.62-7.1,2.8-10.7,3.52-3.6,.72-6.99,1.09-10.16,1.09l53.8,46.47h-39.83l-53.7-46.47h-18.53v-25.76h58.26c3.24-.27,6.2-.94,8.86-2.03,2.68-1.08,4.99-2.55,6.94-4.41,1.95-1.85,3.45-4.08,4.51-6.69,1.06-2.61,1.59-5.59,1.59-8.96V31.51c0-1.46-.18-2.56-.55-3.32-.36-.75-.82-1.32-1.39-1.68-.56-.37-1.15-.58-1.78-.65-.62-.07-1.2-.1-1.73-.1h-85.01v116.32h-25.76V12.98c0-1.78,.33-3.47,.99-5.05,.66-1.59,1.57-2.97,2.72-4.16,1.16-1.19,2.53-2.11,4.12-2.77,1.59-.66,3.3-.99,5.15-.99h97.79c5.75,0,10.6,1.04,14.56,3.12,3.96,2.07,7.18,4.69,9.66,7.82,2.47,3.14,4.25,6.52,5.35,10.16,1.08,3.64,1.63,7.03,1.63,10.21v16.45Z"/>
      <path class="cls-1" d="M450.71,105.92c0,5.15-.89,9.94-2.68,14.37-1.78,4.43-4.28,8.25-7.48,11.49-3.2,3.24-7.01,5.76-11.44,7.58-4.43,1.82-9.24,2.73-14.47,2.73h-94.42v-25.76h94.42c3.17,0,5.65-.91,7.43-2.73,1.78-1.81,2.68-4.37,2.68-7.67V0h25.96V105.92Z"/>
    </g>
  </g>
</svg>